<svg xmlns="http://www.w3.org/2000/svg" viewBox="0 0 64 64"><defs><style>.cls-1{fill:#0072ff;}</style></defs><title>Movie</title><g id="Layer_2" data-name="Layer 2"><path class="cls-1" d="M13.1,9.58l5.27,9.54a1.7,1.7,0,0,0,1.49.88h5.93a.73.73,0,0,0,.64-1.09L20.67,8.49v0A.85.85,0,0,0,19.91,8h-4a11.76,11.76,0,0,0-2.14.2A.94.94,0,0,0,13.1,9.58Z"/><path class="cls-1" d="M44.88,20H51a.89.89,0,0,0,.78-1.32L46.17,8.49h0A.9.9,0,0,0,45.38,8H39.23a.89.89,0,0,0-.78,1.32L44.1,19.54A.89.89,0,0,0,44.88,20Z"/><path class="cls-1" d="M4,19.6a.39.39,0,0,0,.38.4h8.34a.92.92,0,0,0,.8-1.36L9.44,11.23A.92.92,0,0,0,8,11,12.11,12.11,0,0,0,4,19.6Z"/><path class="cls-1" d="M53.72,8H52.25a1,1,0,0,0-.92,1.56l5.47,9.9a1,1,0,0,0,.92.54H59a1,1,0,0,0,1-1V14.28A6.3,6.3,0,0,0,53.72,8Z"/><path class="cls-1" d="M25.56,9.06,31.4,19.63A.72.72,0,0,0,32,20h6.54a.72.72,0,0,0,.63-1.06L33.42,8.49l0-.09A.7.7,0,0,0,32.74,8H26.19A.72.72,0,0,0,25.56,9.06Z"/><path class="cls-1" d="M58.8,24H4V44.12A11.92,11.92,0,0,0,15.88,56H48.12A11.92,11.92,0,0,0,60,44.12V25.2A1.2,1.2,0,0,0,58.8,24Z"/></g></svg>